<mxfile host="www.draw.io" modified="2019-12-17T12:10:31.547Z" agent="Mozilla/5.0 (iPad; CPU OS 13_3 like Mac OS X) AppleWebKit/605.1.15 (KHTML, like Gecko) Version/13.0 YaBrowser/19.12.1.226.11 Mobile/15E148 Safari/604.1" etag="k0Dp5QF-9vlTU39iq6nK" version="12.4.2" type="github" pages="1">
  <diagram id="ino8X07yagJUm5cUdguc" name="Page-1">
    <mxGraphModel dx="526" dy="491" grid="1" gridSize="10" guides="1" tooltips="1" connect="1" arrows="1" fold="1" page="1" pageScale="1" pageWidth="827" pageHeight="1169" math="0" shadow="0">
      <root>
        <mxCell id="0"/>
        <mxCell id="1" parent="0"/>
        <mxCell id="_YIfg3i4x5maGK3U4gLa-12" style="edgeStyle=orthogonalEdgeStyle;rounded=0;orthogonalLoop=1;jettySize=auto;html=1;exitX=0.5;exitY=1;exitDx=0;exitDy=0;entryX=0.5;entryY=0;entryDx=0;entryDy=0;" parent="1" source="_YIfg3i4x5maGK3U4gLa-1" target="_YIfg3i4x5maGK3U4gLa-3" edge="1">
          <mxGeometry relative="1" as="geometry"/>
        </mxCell>
        <mxCell id="_YIfg3i4x5maGK3U4gLa-1" value="Начало" style="rounded=1;whiteSpace=wrap;html=1;imageHeight=24;arcSize=45;" parent="1" vertex="1">
          <mxGeometry x="360" y="90" width="120" height="20" as="geometry"/>
        </mxCell>
        <mxCell id="_YIfg3i4x5maGK3U4gLa-2" value="Конец" style="rounded=1;whiteSpace=wrap;html=1;arcSize=50;" parent="1" vertex="1">
          <mxGeometry x="360" y="590" width="120" height="19" as="geometry"/>
        </mxCell>
        <mxCell id="_YIfg3i4x5maGK3U4gLa-11" style="edgeStyle=orthogonalEdgeStyle;rounded=0;orthogonalLoop=1;jettySize=auto;html=1;exitX=0.5;exitY=1;exitDx=0;exitDy=0;entryX=0.5;entryY=0;entryDx=0;entryDy=0;" parent="1" source="_YIfg3i4x5maGK3U4gLa-3" target="_YIfg3i4x5maGK3U4gLa-9" edge="1">
          <mxGeometry relative="1" as="geometry"/>
        </mxCell>
        <mxCell id="_YIfg3i4x5maGK3U4gLa-3" value="" style="rounded=0;whiteSpace=wrap;html=1;" parent="1" vertex="1">
          <mxGeometry x="360" y="170" width="120" height="60" as="geometry"/>
        </mxCell>
        <mxCell id="_YIfg3i4x5maGK3U4gLa-6" value="RB := B&lt;br&gt;RR := 0" style="text;html=1;strokeColor=none;fillColor=none;align=center;verticalAlign=middle;whiteSpace=wrap;rounded=0;" parent="1" vertex="1">
          <mxGeometry x="360" y="173" width="120" height="48" as="geometry"/>
        </mxCell>
        <mxCell id="_YIfg3i4x5maGK3U4gLa-14" style="edgeStyle=orthogonalEdgeStyle;rounded=0;orthogonalLoop=1;jettySize=auto;html=1;exitX=0;exitY=0.5;exitDx=0;exitDy=0;entryX=0.5;entryY=0;entryDx=0;entryDy=0;" parent="1" source="_YIfg3i4x5maGK3U4gLa-9" target="_YIfg3i4x5maGK3U4gLa-24" edge="1">
          <mxGeometry relative="1" as="geometry">
            <Array as="points">
              <mxPoint x="280" y="300"/>
            </Array>
            <mxPoint x="390" y="410" as="targetPoint"/>
          </mxGeometry>
        </mxCell>
        <mxCell id="_YIfg3i4x5maGK3U4gLa-36" value="Нет" style="text;html=1;align=center;verticalAlign=middle;resizable=0;points=[];;labelBackgroundColor=#ffffff;" parent="_YIfg3i4x5maGK3U4gLa-14" vertex="1" connectable="0">
          <mxGeometry x="-0.5118" y="1" relative="1" as="geometry">
            <mxPoint x="-13" y="-1" as="offset"/>
          </mxGeometry>
        </mxCell>
        <mxCell id="_YIfg3i4x5maGK3U4gLa-22" style="edgeStyle=orthogonalEdgeStyle;rounded=0;orthogonalLoop=1;jettySize=auto;html=1;exitX=1;exitY=0.5;exitDx=0;exitDy=0;jumpSize=6;entryX=0.5;entryY=0;entryDx=0;entryDy=0;" parent="1" source="_YIfg3i4x5maGK3U4gLa-9" target="_YIfg3i4x5maGK3U4gLa-17" edge="1">
          <mxGeometry relative="1" as="geometry">
            <Array as="points">
              <mxPoint x="560" y="300"/>
            </Array>
            <mxPoint x="580" y="420" as="targetPoint"/>
          </mxGeometry>
        </mxCell>
        <mxCell id="_YIfg3i4x5maGK3U4gLa-35" value="Да" style="text;html=1;align=center;verticalAlign=middle;resizable=0;points=[];;labelBackgroundColor=#ffffff;" parent="_YIfg3i4x5maGK3U4gLa-22" vertex="1" connectable="0">
          <mxGeometry x="0.1497" relative="1" as="geometry">
            <mxPoint x="-30" y="-6" as="offset"/>
          </mxGeometry>
        </mxCell>
        <mxCell id="_YIfg3i4x5maGK3U4gLa-9" value="b&lt;sub&gt;0&amp;nbsp;&lt;/sub&gt;= 1?" style="rhombus;whiteSpace=wrap;html=1;" parent="1" vertex="1">
          <mxGeometry x="360" y="270" width="120" height="60" as="geometry"/>
        </mxCell>
        <mxCell id="mm2yy1tvn-SzPlEQDEvn-9" style="edgeStyle=orthogonalEdgeStyle;rounded=0;orthogonalLoop=1;jettySize=auto;html=1;entryX=0.5;entryY=0;entryDx=0;entryDy=0;fontSize=11;" parent="1" source="_YIfg3i4x5maGK3U4gLa-17" target="mm2yy1tvn-SzPlEQDEvn-2" edge="1">
          <mxGeometry relative="1" as="geometry">
            <Array as="points">
              <mxPoint x="560" y="450"/>
              <mxPoint x="420" y="450"/>
            </Array>
          </mxGeometry>
        </mxCell>
        <mxCell id="_YIfg3i4x5maGK3U4gLa-17" value="&lt;span style=&quot;font-size: 12px; white-space: normal;&quot;&gt;RR := RB&lt;/span&gt;" style="rounded=0;whiteSpace=wrap;html=1;fontSize=12;" parent="1" vertex="1">
          <mxGeometry x="500" y="370" width="120" height="59" as="geometry"/>
        </mxCell>
        <mxCell id="mm2yy1tvn-SzPlEQDEvn-10" style="edgeStyle=orthogonalEdgeStyle;rounded=0;orthogonalLoop=1;jettySize=auto;html=1;fontSize=11;entryX=0.5;entryY=0;entryDx=0;entryDy=0;entryPerimeter=0;" parent="1" source="_YIfg3i4x5maGK3U4gLa-24" edge="1" target="mm2yy1tvn-SzPlEQDEvn-2">
          <mxGeometry relative="1" as="geometry">
            <mxPoint x="420" y="570" as="targetPoint"/>
            <Array as="points">
              <mxPoint x="280" y="450"/>
              <mxPoint x="420" y="450"/>
            </Array>
          </mxGeometry>
        </mxCell>
        <mxCell id="_YIfg3i4x5maGK3U4gLa-24" value="&lt;span style=&quot;font-size: 12px; white-space: normal;&quot;&gt;RR := not RB + 1&lt;/span&gt;" style="rounded=0;whiteSpace=wrap;html=1;fontSize=12;" parent="1" vertex="1">
          <mxGeometry x="220" y="370" width="120" height="60" as="geometry"/>
        </mxCell>
        <mxCell id="mm2yy1tvn-SzPlEQDEvn-11" style="edgeStyle=orthogonalEdgeStyle;rounded=0;orthogonalLoop=1;jettySize=auto;html=1;entryX=0.5;entryY=0;entryDx=0;entryDy=0;fontSize=11;" parent="1" source="mm2yy1tvn-SzPlEQDEvn-2" target="_YIfg3i4x5maGK3U4gLa-2" edge="1">
          <mxGeometry relative="1" as="geometry"/>
        </mxCell>
        <mxCell id="mm2yy1tvn-SzPlEQDEvn-2" value="&lt;span style=&quot;font-size: 12px; white-space: normal;&quot;&gt;PR := RR0&lt;/span&gt;" style="rounded=0;whiteSpace=wrap;html=1;fontSize=12;" parent="1" vertex="1">
          <mxGeometry x="360" y="470" width="120" height="60" as="geometry"/>
        </mxCell>
      </root>
    </mxGraphModel>
  </diagram>
</mxfile>
